<?xml version="1.0" encoding="UTF-8" standalone="no"?>
<!DOCTYPE svg PUBLIC "-//W3C//DTD SVG 1.1//EN"
 "http://www.w3.org/Graphics/SVG/1.1/DTD/svg11.dtd">
<!-- Generated by graphviz version 2.40.1 (20161225.0304)
 -->
<!-- Title: dependencies Pages: 1 -->
<svg width="2099pt" height="360pt"
 viewBox="0.00 0.00 2099.00 360.00" xmlns="http://www.w3.org/2000/svg" xmlns:xlink="http://www.w3.org/1999/xlink">
<g id="graph0" class="graph" transform="scale(1 1) rotate(0) translate(4 356)">
<title>dependencies</title>
<polygon fill="#ffffff" stroke="transparent" points="-4,4 -4,-356 2095,-356 2095,4 -4,4"/>
<text text-anchor="start" x="1024.5091" y="-42.4" font-family="sans-serif" font-weight="bold" font-size="14.00" fill="#000000">Legend</text>
<polygon fill="#ffffb3" stroke="transparent" points="811.5,-10 811.5,-30 831.5,-30 831.5,-10 811.5,-10"/>
<text text-anchor="start" x="835.129" y="-15.4" font-family="sans-serif" font-size="14.00" fill="#000000"> &#160;Declarations</text>
<polygon fill="#8dd3c7" stroke="transparent" points="924.5,-10 924.5,-30 944.5,-30 944.5,-10 924.5,-10"/>
<text text-anchor="start" x="948.2251" y="-15.4" font-family="sans-serif" font-size="14.00" fill="#000000"> &#160;Module</text>
<polygon fill="#80b1d3" stroke="transparent" points="1010.5,-10 1010.5,-30 1030.5,-30 1030.5,-10 1010.5,-10"/>
<text text-anchor="start" x="1034.2812" y="-15.4" font-family="sans-serif" font-size="14.00" fill="#000000"> &#160;Bootstrap</text>
<polygon fill="#fdb462" stroke="transparent" points="1107.5,-10 1107.5,-30 1127.5,-30 1127.5,-10 1107.5,-10"/>
<text text-anchor="start" x="1131.1732" y="-15.4" font-family="sans-serif" font-size="14.00" fill="#000000"> &#160;Providers</text>
<polygon fill="#fb8072" stroke="transparent" points="1203.5,-10 1203.5,-30 1223.5,-30 1223.5,-10 1203.5,-10"/>
<text text-anchor="start" x="1227.2258" y="-15.4" font-family="sans-serif" font-size="14.00" fill="#000000"> &#160;Exports</text>
<g id="clust1" class="cluster">
<title>cluster_AppModule</title>
<polygon fill="none" stroke="#000000" stroke-dasharray="1,5" points="711,-146 711,-344 1495,-344 1495,-146 711,-146"/>
</g>
<g id="clust2" class="cluster">
<title>cluster_AppModule_declarations</title>
<polygon fill="none" stroke="#000000" points="1365,-154 1365,-206 1487,-206 1487,-154 1365,-154"/>
</g>
<g id="clust4" class="cluster">
<title>cluster_AppModule_imports</title>
<polygon fill="none" stroke="#000000" points="719,-154 719,-206 1357,-206 1357,-154 719,-154"/>
</g>
<g id="clust6" class="cluster">
<title>cluster_AppModule_bootstrap</title>
<polygon fill="none" stroke="#000000" points="1030,-284 1030,-336 1154,-336 1154,-284 1030,-284"/>
</g>
<g id="clust20" class="cluster">
<title>cluster_HomeModule</title>
<polygon fill="none" stroke="#000000" stroke-dasharray="1,5" points="1773,-70 1773,-206 2083,-206 2083,-70 1773,-70"/>
</g>
<g id="clust21" class="cluster">
<title>cluster_HomeModule_declarations</title>
<polygon fill="none" stroke="#000000" points="1943,-78 1943,-130 2075,-130 2075,-78 1943,-78"/>
</g>
<g id="clust23" class="cluster">
<title>cluster_HomeModule_imports</title>
<polygon fill="none" stroke="#000000" points="1781,-78 1781,-130 1935,-130 1935,-78 1781,-78"/>
</g>
<g id="clust33" class="cluster">
<title>cluster_ItemsModule</title>
<polygon fill="none" stroke="#000000" stroke-dasharray="1,5" points="120,-146 120,-344 703,-344 703,-146 120,-146"/>
</g>
<g id="clust34" class="cluster">
<title>cluster_ItemsModule_declarations</title>
<polygon fill="none" stroke="#000000" points="288,-154 288,-206 695,-206 695,-154 288,-154"/>
</g>
<g id="clust38" class="cluster">
<title>cluster_ItemsModule_imports</title>
<polygon fill="none" stroke="#000000" points="128,-154 128,-206 280,-206 280,-154 128,-154"/>
</g>
<g id="clust39" class="cluster">
<title>cluster_ItemsModule_exports</title>
<polygon fill="none" stroke="#000000" points="351,-284 351,-336 618,-336 618,-284 351,-284"/>
</g>
<g id="clust48" class="cluster">
<title>cluster_LoginModule</title>
<polygon fill="none" stroke="#000000" stroke-dasharray="1,5" points="1039,-70 1039,-138 1347,-138 1347,-70 1039,-70"/>
</g>
<g id="clust49" class="cluster">
<title>cluster_LoginModule_declarations</title>
<polygon fill="none" stroke="#000000" points="1209,-78 1209,-130 1339,-130 1339,-78 1209,-78"/>
</g>
<g id="clust51" class="cluster">
<title>cluster_LoginModule_imports</title>
<polygon fill="none" stroke="#000000" points="1047,-78 1047,-130 1201,-130 1201,-78 1047,-78"/>
</g>
<g id="clust61" class="cluster">
<title>cluster_PageNotFoundModule</title>
<polygon fill="none" stroke="#000000" stroke-dasharray="1,5" points="1355,-70 1355,-138 1765,-138 1765,-70 1355,-70"/>
</g>
<g id="clust62" class="cluster">
<title>cluster_PageNotFoundModule_declarations</title>
<polygon fill="none" stroke="#000000" points="1575,-78 1575,-130 1757,-130 1757,-78 1575,-78"/>
</g>
<g id="clust64" class="cluster">
<title>cluster_PageNotFoundModule_imports</title>
<polygon fill="none" stroke="#000000" points="1363,-78 1363,-130 1567,-130 1567,-78 1363,-78"/>
</g>
<g id="clust74" class="cluster">
<title>cluster_SharedModule</title>
<polygon fill="none" stroke="#000000" stroke-dasharray="1,5" points="8,-70 8,-138 1031,-138 1031,-70 8,-70"/>
</g>
<g id="clust75" class="cluster">
<title>cluster_SharedModule_declarations</title>
<polygon fill="none" stroke="#000000" points="414,-78 414,-130 1023,-130 1023,-78 414,-78"/>
</g>
<g id="clust82" class="cluster">
<title>cluster_SharedModule_exports</title>
<polygon fill="none" stroke="#000000" points="16,-78 16,-130 406,-130 406,-78 16,-78"/>
</g>
<!-- AppComponent -->
<g id="node1" class="node">
<title>AppComponent</title>
<polygon fill="#ffffb3" stroke="#000000" points="1478.9399,-198 1373.0601,-198 1373.0601,-162 1478.9399,-162 1478.9399,-198"/>
<text text-anchor="middle" x="1426" y="-175.8" font-family="Times,serif" font-size="14.00" fill="#000000">AppComponent</text>
</g>
<!-- AppModule -->
<g id="node2" class="node">
<title>AppModule</title>
<polygon fill="#8dd3c7" stroke="#000000" points="1133.6571,-263 1130.6571,-267 1109.6571,-267 1106.6571,-263 1050.3429,-263 1050.3429,-227 1133.6571,-227 1133.6571,-263"/>
<text text-anchor="middle" x="1092" y="-240.8" font-family="Times,serif" font-size="14.00" fill="#000000">AppModule</text>
</g>
<!-- AppComponent&#45;&gt;AppModule -->
<g id="edge1" class="edge">
<title>AppComponent&#45;&gt;AppModule</title>
<path fill="none" stroke="#000000" d="M1426,-198.2843C1426,-219.3211 1426,-251 1426,-251 1426,-251 1143.9631,-251 1143.9631,-251"/>
<polygon fill="#000000" stroke="#000000" points="1143.9632,-247.5001 1133.9631,-251 1143.9631,-254.5001 1143.9632,-247.5001"/>
</g>
<!-- AppComponent  -->
<g id="node8" class="node">
<title>AppComponent </title>
<polygon fill="#80b1d3" stroke="#000000" points="1146.439,-328 1037.561,-328 1037.561,-292 1146.439,-292 1146.439,-328"/>
<text text-anchor="middle" x="1092" y="-305.8" font-family="Times,serif" font-size="14.00" fill="#000000">AppComponent </text>
</g>
<!-- AppModule&#45;&gt;AppComponent  -->
<g id="edge7" class="edge">
<title>AppModule&#45;&gt;AppComponent </title>
<path fill="none" stroke="#000000" stroke-dasharray="1,5" d="M1092,-263.1061C1092,-263.1061 1092,-281.991 1092,-281.991"/>
<polygon fill="#000000" stroke="#000000" points="1088.5001,-281.9909 1092,-291.991 1095.5001,-281.991 1088.5001,-281.9909"/>
</g>
<!-- AppRoutingModule -->
<g id="node3" class="node">
<title>AppRoutingModule</title>
<polygon fill="#8dd3c7" stroke="#000000" points="1349.2744,-198 1346.2744,-202 1325.2744,-202 1322.2744,-198 1220.7256,-198 1220.7256,-162 1349.2744,-162 1349.2744,-198"/>
<text text-anchor="middle" x="1285" y="-175.8" font-family="Times,serif" font-size="14.00" fill="#000000">AppRoutingModule</text>
</g>
<!-- AppRoutingModule&#45;&gt;AppModule -->
<g id="edge2" class="edge">
<title>AppRoutingModule&#45;&gt;AppModule</title>
<path fill="none" stroke="#000000" d="M1285,-198.0225C1285,-215.3734 1285,-239 1285,-239 1285,-239 1143.8781,-239 1143.8781,-239"/>
<polygon fill="#000000" stroke="#000000" points="1143.8782,-235.5001 1133.8781,-239 1143.8781,-242.5001 1143.8782,-235.5001"/>
</g>
<!-- CoreModule -->
<g id="node4" class="node">
<title>CoreModule</title>
<polygon fill="#8dd3c7" stroke="#000000" points="1202.2619,-198 1199.2619,-202 1178.2619,-202 1175.2619,-198 1115.7381,-198 1115.7381,-162 1202.2619,-162 1202.2619,-198"/>
<text text-anchor="middle" x="1159" y="-175.8" font-family="Times,serif" font-size="14.00" fill="#000000">CoreModule</text>
</g>
<!-- CoreModule&#45;&gt;AppModule -->
<g id="edge3" class="edge">
<title>CoreModule&#45;&gt;AppModule</title>
<path fill="none" stroke="#000000" d="M1124.7237,-198.1061C1124.7237,-198.1061 1124.7237,-216.991 1124.7237,-216.991"/>
<polygon fill="#000000" stroke="#000000" points="1121.2238,-216.9909 1124.7237,-226.991 1128.2238,-216.991 1121.2238,-216.9909"/>
</g>
<!-- LoginModule -->
<g id="node5" class="node">
<title>LoginModule</title>
<polygon fill="#8dd3c7" stroke="#000000" points="936.493,-198 933.493,-202 912.493,-202 909.493,-198 843.507,-198 843.507,-162 936.493,-162 936.493,-198"/>
<text text-anchor="middle" x="890" y="-175.8" font-family="Times,serif" font-size="14.00" fill="#000000">LoginModule</text>
</g>
<!-- LoginModule&#45;&gt;AppModule -->
<g id="edge4" class="edge">
<title>LoginModule&#45;&gt;AppModule</title>
<path fill="none" stroke="#000000" d="M890,-198.0091C890,-214.0494 890,-235 890,-235 890,-235 1040.1455,-235 1040.1455,-235"/>
<polygon fill="#000000" stroke="#000000" points="1040.1455,-238.5001 1050.1455,-235 1040.1454,-231.5001 1040.1455,-238.5001"/>
</g>
<!-- PageNotFoundModule -->
<g id="node6" class="node">
<title>PageNotFoundModule</title>
<polygon fill="#8dd3c7" stroke="#000000" points="1097.5421,-198 1094.5421,-202 1073.5421,-202 1070.5421,-198 954.4579,-198 954.4579,-162 1097.5421,-162 1097.5421,-198"/>
<text text-anchor="middle" x="1026" y="-175.8" font-family="Times,serif" font-size="14.00" fill="#000000">PageNotFoundModule</text>
</g>
<!-- PageNotFoundModule&#45;&gt;AppModule -->
<g id="edge5" class="edge">
<title>PageNotFoundModule&#45;&gt;AppModule</title>
<path fill="none" stroke="#000000" d="M1073.9713,-198.1061C1073.9713,-198.1061 1073.9713,-216.991 1073.9713,-216.991"/>
<polygon fill="#000000" stroke="#000000" points="1070.4713,-216.9909 1073.9713,-226.991 1077.4713,-216.991 1070.4713,-216.9909"/>
</g>
<!-- SharedModule -->
<g id="node7" class="node">
<title>SharedModule</title>
<polygon fill="#8dd3c7" stroke="#000000" points="825.4231,-198 822.4231,-202 801.4231,-202 798.4231,-198 726.5769,-198 726.5769,-162 825.4231,-162 825.4231,-198"/>
<text text-anchor="middle" x="776" y="-175.8" font-family="Times,serif" font-size="14.00" fill="#000000">SharedModule</text>
</g>
<!-- SharedModule&#45;&gt;AppModule -->
<g id="edge6" class="edge">
<title>SharedModule&#45;&gt;AppModule</title>
<path fill="none" stroke="#000000" d="M792.4037,-198.2667C792.4037,-216.5552 792.4037,-242 792.4037,-242 792.4037,-242 1040.3424,-242 1040.3424,-242"/>
<polygon fill="#000000" stroke="#000000" points="1040.3425,-245.5001 1050.3424,-242 1040.3424,-238.5001 1040.3425,-245.5001"/>
</g>
<!-- ItemsModule -->
<g id="node15" class="node">
<title>ItemsModule</title>
<polygon fill="#8dd3c7" stroke="#000000" points="534.1515,-263 531.1515,-267 510.1515,-267 507.1515,-263 443.8485,-263 443.8485,-227 534.1515,-227 534.1515,-263"/>
<text text-anchor="middle" x="489" y="-240.8" font-family="Times,serif" font-size="14.00" fill="#000000">ItemsModule</text>
</g>
<!-- SharedModule&#45;&gt;ItemsModule -->
<g id="edge14" class="edge">
<title>SharedModule&#45;&gt;ItemsModule</title>
<path fill="none" stroke="#000000" d="M759.5963,-198.0109C759.5963,-220.4852 759.5963,-256 759.5963,-256 759.5963,-256 544.2917,-256 544.2917,-256"/>
<polygon fill="#000000" stroke="#000000" points="544.2918,-252.5001 534.2917,-256 544.2917,-259.5001 544.2918,-252.5001"/>
</g>
<!-- FilterByStatePipe  -->
<g id="node28" class="node">
<title>FilterByStatePipe </title>
<polygon fill="#fb8072" stroke="#000000" points="397.547,-122 278.453,-122 278.453,-86 397.547,-86 397.547,-122"/>
<text text-anchor="middle" x="338" y="-99.8" font-family="Times,serif" font-size="14.00" fill="#000000">FilterByStatePipe </text>
</g>
<!-- SharedModule&#45;&gt;FilterByStatePipe  -->
<g id="edge26" class="edge">
<title>SharedModule&#45;&gt;FilterByStatePipe </title>
<path fill="none" stroke="#000000" stroke-dasharray="5,2" d="M743.377,-161.793C743.377,-156.4451 743.377,-152 743.377,-152 743.377,-152 346.9343,-152 346.9343,-152 346.9343,-152 346.9343,-132.1467 346.9343,-132.1467"/>
<polygon fill="#000000" stroke="#000000" points="350.4343,-132.1467 346.9343,-122.1467 343.4343,-132.1468 350.4343,-132.1467"/>
</g>
<!-- ItemComponent  -->
<g id="node29" class="node">
<title>ItemComponent </title>
<polygon fill="#fb8072" stroke="#000000" points="260.4899,-122 149.5101,-122 149.5101,-86 260.4899,-86 260.4899,-122"/>
<text text-anchor="middle" x="205" y="-99.8" font-family="Times,serif" font-size="14.00" fill="#000000">ItemComponent </text>
</g>
<!-- SharedModule&#45;&gt;ItemComponent  -->
<g id="edge27" class="edge">
<title>SharedModule&#45;&gt;ItemComponent </title>
<path fill="none" stroke="#000000" stroke-dasharray="5,2" d="M737.8476,-161.8314C737.8476,-157.9541 737.8476,-155 737.8476,-155 737.8476,-155 205,-155 205,-155 205,-155 205,-132.1243 205,-132.1243"/>
<polygon fill="#000000" stroke="#000000" points="208.5001,-132.1243 205,-122.1243 201.5001,-132.1243 208.5001,-132.1243"/>
</g>
<!-- NavComponent  -->
<g id="node30" class="node">
<title>NavComponent </title>
<polygon fill="#fb8072" stroke="#000000" points="132.1537,-122 23.8463,-122 23.8463,-86 132.1537,-86 132.1537,-122"/>
<text text-anchor="middle" x="78" y="-99.8" font-family="Times,serif" font-size="14.00" fill="#000000">NavComponent </text>
</g>
<!-- SharedModule&#45;&gt;NavComponent  -->
<g id="edge28" class="edge">
<title>SharedModule&#45;&gt;NavComponent </title>
<path fill="none" stroke="#000000" stroke-dasharray="5,2" d="M732.3183,-161.92C732.3183,-160.1536 732.3183,-159 732.3183,-159 732.3183,-159 78,-159 78,-159 78,-159 78,-132.0091 78,-132.0091"/>
<polygon fill="#000000" stroke="#000000" points="81.5001,-132.009 78,-122.0091 74.5001,-132.0091 81.5001,-132.009"/>
</g>
<!-- HomeComponent -->
<g id="node9" class="node">
<title>HomeComponent</title>
<polygon fill="#ffffb3" stroke="#000000" points="2066.5451,-122 1951.4549,-122 1951.4549,-86 2066.5451,-86 2066.5451,-122"/>
<text text-anchor="middle" x="2009" y="-99.8" font-family="Times,serif" font-size="14.00" fill="#000000">HomeComponent</text>
</g>
<!-- HomeModule -->
<g id="node10" class="node">
<title>HomeModule</title>
<polygon fill="#8dd3c7" stroke="#000000" points="1979.7619,-198 1976.7619,-202 1955.7619,-202 1952.7619,-198 1886.2381,-198 1886.2381,-162 1979.7619,-162 1979.7619,-198"/>
<text text-anchor="middle" x="1933" y="-175.8" font-family="Times,serif" font-size="14.00" fill="#000000">HomeModule</text>
</g>
<!-- HomeComponent&#45;&gt;HomeModule -->
<g id="edge8" class="edge">
<title>HomeComponent&#45;&gt;HomeModule</title>
<path fill="none" stroke="#000000" d="M1965.5544,-122.0109C1965.5544,-122.0109 1965.5544,-151.855 1965.5544,-151.855"/>
<polygon fill="#000000" stroke="#000000" points="1962.0544,-151.8549 1965.5544,-161.855 1969.0544,-151.855 1962.0544,-151.8549"/>
</g>
<!-- HomeRoutingModule -->
<g id="node11" class="node">
<title>HomeRoutingModule</title>
<polygon fill="#8dd3c7" stroke="#000000" points="1927.3795,-122 1924.3795,-126 1903.3795,-126 1900.3795,-122 1788.6205,-122 1788.6205,-86 1927.3795,-86 1927.3795,-122"/>
<text text-anchor="middle" x="1858" y="-99.8" font-family="Times,serif" font-size="14.00" fill="#000000">HomeRoutingModule</text>
</g>
<!-- HomeRoutingModule&#45;&gt;HomeModule -->
<g id="edge9" class="edge">
<title>HomeRoutingModule&#45;&gt;HomeModule</title>
<path fill="none" stroke="#000000" d="M1906.7795,-122.0109C1906.7795,-122.0109 1906.7795,-151.855 1906.7795,-151.855"/>
<polygon fill="#000000" stroke="#000000" points="1903.2795,-151.8549 1906.7795,-161.855 1910.2795,-151.855 1903.2795,-151.8549"/>
</g>
<!-- AbstractComponent -->
<g id="node12" class="node">
<title>AbstractComponent</title>
<polygon fill="#ffffb3" stroke="#000000" points="687.2548,-198 558.7452,-198 558.7452,-162 687.2548,-162 687.2548,-198"/>
<text text-anchor="middle" x="623" y="-175.8" font-family="Times,serif" font-size="14.00" fill="#000000">AbstractComponent</text>
</g>
<!-- AbstractComponent&#45;&gt;ItemsModule -->
<g id="edge10" class="edge">
<title>AbstractComponent&#45;&gt;ItemsModule</title>
<path fill="none" stroke="#000000" d="M584.4641,-198.1289C584.4641,-218.5724 584.4641,-249 584.4641,-249 584.4641,-249 544.2159,-249 544.2159,-249"/>
<polygon fill="#000000" stroke="#000000" points="544.216,-245.5001 534.2159,-249 544.2159,-252.5001 544.216,-245.5001"/>
</g>
<!-- ListComponent -->
<g id="node13" class="node">
<title>ListComponent</title>
<polygon fill="#ffffb3" stroke="#000000" points="540.6109,-198 437.3891,-198 437.3891,-162 540.6109,-162 540.6109,-198"/>
<text text-anchor="middle" x="489" y="-175.8" font-family="Times,serif" font-size="14.00" fill="#000000">ListComponent</text>
</g>
<!-- ListComponent&#45;&gt;ItemsModule -->
<g id="edge11" class="edge">
<title>ListComponent&#45;&gt;ItemsModule</title>
<path fill="none" stroke="#000000" d="M489,-198.1061C489,-198.1061 489,-216.991 489,-216.991"/>
<polygon fill="#000000" stroke="#000000" points="485.5001,-216.9909 489,-226.991 492.5001,-216.991 485.5001,-216.9909"/>
</g>
<!-- LivreesComponent -->
<g id="node14" class="node">
<title>LivreesComponent</title>
<polygon fill="#ffffb3" stroke="#000000" points="419.8104,-198 296.1896,-198 296.1896,-162 419.8104,-162 419.8104,-198"/>
<text text-anchor="middle" x="358" y="-175.8" font-family="Times,serif" font-size="14.00" fill="#000000">LivreesComponent</text>
</g>
<!-- LivreesComponent&#45;&gt;ItemsModule -->
<g id="edge12" class="edge">
<title>LivreesComponent&#45;&gt;ItemsModule</title>
<path fill="none" stroke="#000000" d="M389.125,-198.0225C389.125,-215.3734 389.125,-239 389.125,-239 389.125,-239 433.738,-239 433.738,-239"/>
<polygon fill="#000000" stroke="#000000" points="433.7381,-242.5001 443.738,-239 433.738,-235.5001 433.7381,-242.5001"/>
</g>
<!-- ListComponent  -->
<g id="node17" class="node">
<title>ListComponent </title>
<polygon fill="#fb8072" stroke="#000000" points="610.1115,-328 503.8885,-328 503.8885,-292 610.1115,-292 610.1115,-328"/>
<text text-anchor="middle" x="557" y="-305.8" font-family="Times,serif" font-size="14.00" fill="#000000">ListComponent </text>
</g>
<!-- ItemsModule&#45;&gt;ListComponent  -->
<g id="edge15" class="edge">
<title>ItemsModule&#45;&gt;ListComponent </title>
<path fill="none" stroke="#000000" stroke-dasharray="5,2" d="M519.01,-263.1061C519.01,-263.1061 519.01,-281.991 519.01,-281.991"/>
<polygon fill="#000000" stroke="#000000" points="515.5101,-281.9909 519.01,-291.991 522.5101,-281.991 515.5101,-281.9909"/>
</g>
<!-- LivreesComponent  -->
<g id="node18" class="node">
<title>LivreesComponent </title>
<polygon fill="#fb8072" stroke="#000000" points="485.3101,-328 358.6899,-328 358.6899,-292 485.3101,-292 485.3101,-328"/>
<text text-anchor="middle" x="422" y="-305.8" font-family="Times,serif" font-size="14.00" fill="#000000">LivreesComponent </text>
</g>
<!-- ItemsModule&#45;&gt;LivreesComponent  -->
<g id="edge16" class="edge">
<title>ItemsModule&#45;&gt;LivreesComponent </title>
<path fill="none" stroke="#000000" stroke-dasharray="5,2" d="M464.5398,-263.1061C464.5398,-263.1061 464.5398,-281.991 464.5398,-281.991"/>
<polygon fill="#000000" stroke="#000000" points="461.0399,-281.9909 464.5398,-291.991 468.0399,-281.991 461.0399,-281.9909"/>
</g>
<!-- ItemsRoutingModule -->
<g id="node16" class="node">
<title>ItemsRoutingModule</title>
<polygon fill="#8dd3c7" stroke="#000000" points="271.7688,-198 268.7688,-202 247.7688,-202 244.7688,-198 136.2312,-198 136.2312,-162 271.7688,-162 271.7688,-198"/>
<text text-anchor="middle" x="204" y="-175.8" font-family="Times,serif" font-size="14.00" fill="#000000">ItemsRoutingModule</text>
</g>
<!-- ItemsRoutingModule&#45;&gt;ItemsModule -->
<g id="edge13" class="edge">
<title>ItemsRoutingModule&#45;&gt;ItemsModule</title>
<path fill="none" stroke="#000000" d="M204,-198.2843C204,-219.3211 204,-251 204,-251 204,-251 433.8409,-251 433.8409,-251"/>
<polygon fill="#000000" stroke="#000000" points="433.8409,-254.5001 443.8409,-251 433.8409,-247.5001 433.8409,-254.5001"/>
</g>
<!-- LoginComponent -->
<g id="node19" class="node">
<title>LoginComponent</title>
<polygon fill="#ffffb3" stroke="#000000" points="1331.2758,-122 1216.7242,-122 1216.7242,-86 1331.2758,-86 1331.2758,-122"/>
<text text-anchor="middle" x="1274" y="-99.8" font-family="Times,serif" font-size="14.00" fill="#000000">LoginComponent</text>
</g>
<!-- LoginComponent&#45;&gt;LoginModule -->
<g id="edge17" class="edge">
<title>LoginComponent&#45;&gt;LoginModule</title>
<path fill="none" stroke="#000000" d="M1276.0004,-122.2015C1276.0004,-128.028 1276.0004,-133 1276.0004,-133 1276.0004,-133 931.6667,-133 931.6667,-133 931.6667,-133 931.6667,-151.963 931.6667,-151.963"/>
<polygon fill="#000000" stroke="#000000" points="928.1668,-151.963 931.6667,-161.963 935.1668,-151.963 928.1668,-151.963"/>
</g>
<!-- LoginRoutingModule -->
<g id="node20" class="node">
<title>LoginRoutingModule</title>
<polygon fill="#8dd3c7" stroke="#000000" points="1193.1108,-122 1190.1108,-126 1169.1108,-126 1166.1108,-122 1054.8892,-122 1054.8892,-86 1193.1108,-86 1193.1108,-122"/>
<text text-anchor="middle" x="1124" y="-99.8" font-family="Times,serif" font-size="14.00" fill="#000000">LoginRoutingModule</text>
</g>
<!-- LoginRoutingModule&#45;&gt;LoginModule -->
<g id="edge18" class="edge">
<title>LoginRoutingModule&#45;&gt;LoginModule</title>
<path fill="none" stroke="#000000" d="M1065.6511,-122.0579C1065.6511,-126.4945 1065.6511,-130 1065.6511,-130 1065.6511,-130 926.837,-130 926.837,-130 926.837,-130 926.837,-151.9489 926.837,-151.9489"/>
<polygon fill="#000000" stroke="#000000" points="923.337,-151.9488 926.837,-161.9489 930.337,-151.9489 923.337,-151.9488"/>
</g>
<!-- PageNotFoundComponent -->
<g id="node21" class="node">
<title>PageNotFoundComponent</title>
<polygon fill="#ffffb3" stroke="#000000" points="1748.8243,-122 1583.1757,-122 1583.1757,-86 1748.8243,-86 1748.8243,-122"/>
<text text-anchor="middle" x="1666" y="-99.8" font-family="Times,serif" font-size="14.00" fill="#000000">PageNotFoundComponent</text>
</g>
<!-- PageNotFoundComponent&#45;&gt;PageNotFoundModule -->
<g id="edge19" class="edge">
<title>PageNotFoundComponent&#45;&gt;PageNotFoundModule</title>
<path fill="none" stroke="#000000" d="M1666,-122.0664C1666,-131.4587 1666,-141 1666,-141 1666,-141 1087.0642,-141 1087.0642,-141 1087.0642,-141 1087.0642,-151.8701 1087.0642,-151.8701"/>
<polygon fill="#000000" stroke="#000000" points="1083.5643,-151.8701 1087.0642,-161.8701 1090.5643,-151.8701 1083.5643,-151.8701"/>
</g>
<!-- PageNotFoundRoutingModule -->
<g id="node22" class="node">
<title>PageNotFoundRoutingModule</title>
<polygon fill="#8dd3c7" stroke="#000000" points="1559.1595,-122 1556.1595,-126 1535.1595,-126 1532.1595,-122 1370.8405,-122 1370.8405,-86 1559.1595,-86 1559.1595,-122"/>
<text text-anchor="middle" x="1465" y="-99.8" font-family="Times,serif" font-size="14.00" fill="#000000">PageNotFoundRoutingModule</text>
</g>
<!-- PageNotFoundRoutingModule&#45;&gt;PageNotFoundModule -->
<g id="edge20" class="edge">
<title>PageNotFoundRoutingModule&#45;&gt;PageNotFoundModule</title>
<path fill="none" stroke="#000000" d="M1426,-122.0449C1426,-129.749 1426,-137 1426,-137 1426,-137 1076.3577,-137 1076.3577,-137 1076.3577,-137 1076.3577,-151.5146 1076.3577,-151.5146"/>
<polygon fill="#000000" stroke="#000000" points="1072.8577,-151.5145 1076.3577,-161.5146 1079.8577,-151.5146 1072.8577,-151.5145"/>
</g>
<!-- CapitalizePipe -->
<g id="node23" class="node">
<title>CapitalizePipe</title>
<polygon fill="#ffffb3" stroke="#000000" points="1014.6458,-122 917.3542,-122 917.3542,-86 1014.6458,-86 1014.6458,-122"/>
<text text-anchor="middle" x="966" y="-99.8" font-family="Times,serif" font-size="14.00" fill="#000000">CapitalizePipe</text>
</g>
<!-- CapitalizePipe&#45;&gt;SharedModule -->
<g id="edge21" class="edge">
<title>CapitalizePipe&#45;&gt;SharedModule</title>
<path fill="none" stroke="#000000" d="M922.0072,-122.1679C922.0072,-124.4478 922.0072,-126 922.0072,-126 922.0072,-126 811.2162,-126 811.2162,-126 811.2162,-126 811.2162,-151.7181 811.2162,-151.7181"/>
<polygon fill="#000000" stroke="#000000" points="807.7163,-151.718 811.2162,-161.7181 814.7163,-151.7181 807.7163,-151.718"/>
</g>
<!-- FilterByStatePipe -->
<g id="node24" class="node">
<title>FilterByStatePipe</title>
<polygon fill="#ffffb3" stroke="#000000" points="898.5479,-122 783.4521,-122 783.4521,-86 898.5479,-86 898.5479,-122"/>
<text text-anchor="middle" x="841" y="-99.8" font-family="Times,serif" font-size="14.00" fill="#000000">FilterByStatePipe</text>
</g>
<!-- FilterByStatePipe&#45;&gt;SharedModule -->
<g id="edge22" class="edge">
<title>FilterByStatePipe&#45;&gt;SharedModule</title>
<path fill="none" stroke="#000000" d="M797.2214,-122.0109C797.2214,-122.0109 797.2214,-151.855 797.2214,-151.855"/>
<polygon fill="#000000" stroke="#000000" points="793.7215,-151.8549 797.2214,-161.855 800.7215,-151.855 793.7215,-151.8549"/>
</g>
<!-- ItemComponent -->
<g id="node25" class="node">
<title>ItemComponent</title>
<polygon fill="#ffffb3" stroke="#000000" points="765.4888,-122 658.5112,-122 658.5112,-86 765.4888,-86 765.4888,-122"/>
<text text-anchor="middle" x="712" y="-99.8" font-family="Times,serif" font-size="14.00" fill="#000000">ItemComponent</text>
</g>
<!-- ItemComponent&#45;&gt;SharedModule -->
<g id="edge23" class="edge">
<title>ItemComponent&#45;&gt;SharedModule</title>
<path fill="none" stroke="#000000" d="M759.965,-122.0109C759.965,-122.0109 759.965,-151.855 759.965,-151.855"/>
<polygon fill="#000000" stroke="#000000" points="756.4651,-151.8549 759.965,-161.855 763.4651,-151.855 756.4651,-151.8549"/>
</g>
<!-- NavComponent -->
<g id="node26" class="node">
<title>NavComponent</title>
<polygon fill="#ffffb3" stroke="#000000" points="640.1542,-122 535.8458,-122 535.8458,-86 640.1542,-86 640.1542,-122"/>
<text text-anchor="middle" x="588" y="-99.8" font-family="Times,serif" font-size="14.00" fill="#000000">NavComponent</text>
</g>
<!-- NavComponent&#45;&gt;SharedModule -->
<g id="edge24" class="edge">
<title>NavComponent&#45;&gt;SharedModule</title>
<path fill="none" stroke="#000000" d="M599.4748,-122.1274C599.4748,-132.7109 599.4748,-144 599.4748,-144 599.4748,-144 754.4357,-144 754.4357,-144 754.4357,-144 754.4357,-151.5782 754.4357,-151.5782"/>
<polygon fill="#000000" stroke="#000000" points="750.9358,-151.5781 754.4357,-161.5782 757.9358,-151.5782 750.9358,-151.5781"/>
</g>
<!-- StateDirective -->
<g id="node27" class="node">
<title>StateDirective</title>
<polygon fill="#ffffb3" stroke="#000000" points="518.0758,-122 421.9242,-122 421.9242,-86 518.0758,-86 518.0758,-122"/>
<text text-anchor="middle" x="470" y="-99.8" font-family="Times,serif" font-size="14.00" fill="#000000">StateDirective</text>
</g>
<!-- StateDirective&#45;&gt;SharedModule -->
<g id="edge25" class="edge">
<title>StateDirective&#45;&gt;SharedModule</title>
<path fill="none" stroke="#000000" d="M477.7413,-122.1505C477.7413,-134.2708 477.7413,-148 477.7413,-148 477.7413,-148 748.9063,-148 748.9063,-148 748.9063,-148 748.9063,-151.7566 748.9063,-151.7566"/>
<polygon fill="#000000" stroke="#000000" points="745.4064,-151.7566 748.9063,-161.7566 752.4064,-151.7566 745.4064,-151.7566"/>
</g>
</g>
</svg>
