<?xml version="1.0" encoding="UTF-8" standalone="no"?>
<!DOCTYPE svg PUBLIC "-//W3C//DTD SVG 1.1//EN"
 "http://www.w3.org/Graphics/SVG/1.1/DTD/svg11.dtd">
<!-- Generated by graphviz version 2.40.1 (20161225.0304)
 -->
<!-- Title: dependencies Pages: 1 -->
<svg width="649pt" height="284pt"
 viewBox="0.00 0.00 649.00 284.00" xmlns="http://www.w3.org/2000/svg" xmlns:xlink="http://www.w3.org/1999/xlink">
<g id="graph0" class="graph" transform="scale(1 1) rotate(0) translate(4 280)">
<title>dependencies</title>
<polygon fill="#ffffff" stroke="transparent" points="-4,4 -4,-280 645,-280 645,4 -4,4"/>
<text text-anchor="start" x="299.5091" y="-42.4" font-family="sans-serif" font-weight="bold" font-size="14.00" fill="#000000">Legend</text>
<polygon fill="#ffffb3" stroke="transparent" points="86.5,-10 86.5,-30 106.5,-30 106.5,-10 86.5,-10"/>
<text text-anchor="start" x="110.129" y="-15.4" font-family="sans-serif" font-size="14.00" fill="#000000"> &#160;Declarations</text>
<polygon fill="#8dd3c7" stroke="transparent" points="199.5,-10 199.5,-30 219.5,-30 219.5,-10 199.5,-10"/>
<text text-anchor="start" x="223.2251" y="-15.4" font-family="sans-serif" font-size="14.00" fill="#000000"> &#160;Module</text>
<polygon fill="#80b1d3" stroke="transparent" points="285.5,-10 285.5,-30 305.5,-30 305.5,-10 285.5,-10"/>
<text text-anchor="start" x="309.2812" y="-15.4" font-family="sans-serif" font-size="14.00" fill="#000000"> &#160;Bootstrap</text>
<polygon fill="#fdb462" stroke="transparent" points="382.5,-10 382.5,-30 402.5,-30 402.5,-10 382.5,-10"/>
<text text-anchor="start" x="406.1732" y="-15.4" font-family="sans-serif" font-size="14.00" fill="#000000"> &#160;Providers</text>
<polygon fill="#fb8072" stroke="transparent" points="478.5,-10 478.5,-30 498.5,-30 498.5,-10 478.5,-10"/>
<text text-anchor="start" x="502.2258" y="-15.4" font-family="sans-serif" font-size="14.00" fill="#000000"> &#160;Exports</text>
<g id="clust1" class="cluster">
<title>cluster_SharedModule</title>
<polygon fill="none" stroke="#000000" stroke-dasharray="1,5" points="8,-70 8,-268 633,-268 633,-70 8,-70"/>
</g>
<g id="clust2" class="cluster">
<title>cluster_SharedModule_declarations</title>
<polygon fill="none" stroke="#000000" points="16,-78 16,-130 625,-130 625,-78 16,-78"/>
</g>
<g id="clust9" class="cluster">
<title>cluster_SharedModule_exports</title>
<polygon fill="none" stroke="#000000" points="125,-208 125,-260 515,-260 515,-208 125,-208"/>
</g>
<!-- CapitalizePipe -->
<g id="node1" class="node">
<title>CapitalizePipe</title>
<polygon fill="#ffffb3" stroke="#000000" points="616.6458,-122 519.3542,-122 519.3542,-86 616.6458,-86 616.6458,-122"/>
<text text-anchor="middle" x="568" y="-99.8" font-family="Times,serif" font-size="14.00" fill="#000000">CapitalizePipe</text>
</g>
<!-- SharedModule -->
<g id="node6" class="node">
<title>SharedModule</title>
<polygon fill="#8dd3c7" stroke="#000000" points="363.4231,-187 360.4231,-191 339.4231,-191 336.4231,-187 264.5769,-187 264.5769,-151 363.4231,-151 363.4231,-187"/>
<text text-anchor="middle" x="314" y="-164.8" font-family="Times,serif" font-size="14.00" fill="#000000">SharedModule</text>
</g>
<!-- CapitalizePipe&#45;&gt;SharedModule -->
<g id="edge1" class="edge">
<title>CapitalizePipe&#45;&gt;SharedModule</title>
<path fill="none" stroke="#000000" d="M568,-122.1061C568,-141.3391 568,-169 568,-169 568,-169 373.2749,-169 373.2749,-169"/>
<polygon fill="#000000" stroke="#000000" points="373.275,-165.5001 363.2749,-169 373.2749,-172.5001 373.275,-165.5001"/>
</g>
<!-- FilterByStatePipe -->
<g id="node2" class="node">
<title>FilterByStatePipe</title>
<polygon fill="#ffffb3" stroke="#000000" points="500.5479,-122 385.4521,-122 385.4521,-86 500.5479,-86 500.5479,-122"/>
<text text-anchor="middle" x="443" y="-99.8" font-family="Times,serif" font-size="14.00" fill="#000000">FilterByStatePipe</text>
</g>
<!-- FilterByStatePipe&#45;&gt;SharedModule -->
<g id="edge2" class="edge">
<title>FilterByStatePipe&#45;&gt;SharedModule</title>
<path fill="none" stroke="#000000" d="M463.0078,-122.027C463.0078,-138.3976 463.0078,-160 463.0078,-160 463.0078,-160 373.6175,-160 373.6175,-160"/>
<polygon fill="#000000" stroke="#000000" points="373.6175,-156.5001 363.6175,-160 373.6174,-163.5001 373.6175,-156.5001"/>
</g>
<!-- ItemComponent -->
<g id="node3" class="node">
<title>ItemComponent</title>
<polygon fill="#ffffb3" stroke="#000000" points="367.4888,-122 260.5112,-122 260.5112,-86 367.4888,-86 367.4888,-122"/>
<text text-anchor="middle" x="314" y="-99.8" font-family="Times,serif" font-size="14.00" fill="#000000">ItemComponent</text>
</g>
<!-- ItemComponent&#45;&gt;SharedModule -->
<g id="edge3" class="edge">
<title>ItemComponent&#45;&gt;SharedModule</title>
<path fill="none" stroke="#000000" d="M314,-122.1061C314,-122.1061 314,-140.991 314,-140.991"/>
<polygon fill="#000000" stroke="#000000" points="310.5001,-140.9909 314,-150.991 317.5001,-140.991 310.5001,-140.9909"/>
</g>
<!-- NavComponent -->
<g id="node4" class="node">
<title>NavComponent</title>
<polygon fill="#ffffb3" stroke="#000000" points="242.1542,-122 137.8458,-122 137.8458,-86 242.1542,-86 242.1542,-122"/>
<text text-anchor="middle" x="190" y="-99.8" font-family="Times,serif" font-size="14.00" fill="#000000">NavComponent</text>
</g>
<!-- NavComponent&#45;&gt;SharedModule -->
<g id="edge4" class="edge">
<title>NavComponent&#45;&gt;SharedModule</title>
<path fill="none" stroke="#000000" d="M206.6089,-122.027C206.6089,-138.3976 206.6089,-160 206.6089,-160 206.6089,-160 254.7048,-160 254.7048,-160"/>
<polygon fill="#000000" stroke="#000000" points="254.7048,-163.5001 264.7048,-160 254.7048,-156.5001 254.7048,-163.5001"/>
</g>
<!-- StateDirective -->
<g id="node5" class="node">
<title>StateDirective</title>
<polygon fill="#ffffb3" stroke="#000000" points="120.0758,-122 23.9242,-122 23.9242,-86 120.0758,-86 120.0758,-122"/>
<text text-anchor="middle" x="72" y="-99.8" font-family="Times,serif" font-size="14.00" fill="#000000">StateDirective</text>
</g>
<!-- StateDirective&#45;&gt;SharedModule -->
<g id="edge5" class="edge">
<title>StateDirective&#45;&gt;SharedModule</title>
<path fill="none" stroke="#000000" d="M72,-122.1061C72,-141.3391 72,-169 72,-169 72,-169 254.736,-169 254.736,-169"/>
<polygon fill="#000000" stroke="#000000" points="254.736,-172.5001 264.736,-169 254.736,-165.5001 254.736,-172.5001"/>
</g>
<!-- FilterByStatePipe  -->
<g id="node7" class="node">
<title>FilterByStatePipe </title>
<polygon fill="#fb8072" stroke="#000000" points="506.547,-252 387.453,-252 387.453,-216 506.547,-216 506.547,-252"/>
<text text-anchor="middle" x="447" y="-229.8" font-family="Times,serif" font-size="14.00" fill="#000000">FilterByStatePipe </text>
</g>
<!-- SharedModule&#45;&gt;FilterByStatePipe  -->
<g id="edge6" class="edge">
<title>SharedModule&#45;&gt;FilterByStatePipe </title>
<path fill="none" stroke="#000000" stroke-dasharray="5,2" d="M363.4403,-178C393.1503,-178 425.2422,-178 425.2422,-178 425.2422,-178 425.2422,-205.973 425.2422,-205.973"/>
<polygon fill="#000000" stroke="#000000" points="421.7423,-205.973 425.2422,-215.973 428.7423,-205.973 421.7423,-205.973"/>
</g>
<!-- ItemComponent  -->
<g id="node8" class="node">
<title>ItemComponent </title>
<polygon fill="#fb8072" stroke="#000000" points="369.4899,-252 258.5101,-252 258.5101,-216 369.4899,-216 369.4899,-252"/>
<text text-anchor="middle" x="314" y="-229.8" font-family="Times,serif" font-size="14.00" fill="#000000">ItemComponent </text>
</g>
<!-- SharedModule&#45;&gt;ItemComponent  -->
<g id="edge7" class="edge">
<title>SharedModule&#45;&gt;ItemComponent </title>
<path fill="none" stroke="#000000" stroke-dasharray="5,2" d="M314,-187.1061C314,-187.1061 314,-205.991 314,-205.991"/>
<polygon fill="#000000" stroke="#000000" points="310.5001,-205.9909 314,-215.991 317.5001,-205.991 310.5001,-205.9909"/>
</g>
<!-- NavComponent  -->
<g id="node9" class="node">
<title>NavComponent </title>
<polygon fill="#fb8072" stroke="#000000" points="241.1537,-252 132.8463,-252 132.8463,-216 241.1537,-216 241.1537,-252"/>
<text text-anchor="middle" x="187" y="-229.8" font-family="Times,serif" font-size="14.00" fill="#000000">NavComponent </text>
</g>
<!-- SharedModule&#45;&gt;NavComponent  -->
<g id="edge8" class="edge">
<title>SharedModule&#45;&gt;NavComponent </title>
<path fill="none" stroke="#000000" stroke-dasharray="5,2" d="M264.7828,-178C223.8105,-178 172.1411,-178 172.1411,-178 172.1411,-178 172.1411,-205.973 172.1411,-205.973"/>
<polygon fill="#000000" stroke="#000000" points="168.6412,-205.973 172.1411,-215.973 175.6412,-205.973 168.6412,-205.973"/>
</g>
</g>
</svg>
