<?xml version="1.0" encoding="UTF-8" standalone="no"?>
<!DOCTYPE svg PUBLIC "-//W3C//DTD SVG 1.1//EN"
 "http://www.w3.org/Graphics/SVG/1.1/DTD/svg11.dtd">
<!-- Generated by graphviz version 2.40.1 (20161225.0304)
 -->
<!-- Title: dependencies Pages: 1 -->
<svg width="723pt" height="284pt"
 viewBox="0.00 0.00 723.00 284.00" xmlns="http://www.w3.org/2000/svg" xmlns:xlink="http://www.w3.org/1999/xlink">
<g id="graph0" class="graph" transform="scale(1 1) rotate(0) translate(4 280)">
<title>dependencies</title>
<polygon fill="#ffffff" stroke="transparent" points="-4,4 -4,-280 719,-280 719,4 -4,4"/>
<text text-anchor="start" x="336.5091" y="-42.4" font-family="sans-serif" font-weight="bold" font-size="14.00" fill="#000000">Legend</text>
<polygon fill="#ffffb3" stroke="transparent" points="123.5,-10 123.5,-30 143.5,-30 143.5,-10 123.5,-10"/>
<text text-anchor="start" x="147.129" y="-15.4" font-family="sans-serif" font-size="14.00" fill="#000000"> &#160;Declarations</text>
<polygon fill="#8dd3c7" stroke="transparent" points="236.5,-10 236.5,-30 256.5,-30 256.5,-10 236.5,-10"/>
<text text-anchor="start" x="260.2251" y="-15.4" font-family="sans-serif" font-size="14.00" fill="#000000"> &#160;Module</text>
<polygon fill="#80b1d3" stroke="transparent" points="322.5,-10 322.5,-30 342.5,-30 342.5,-10 322.5,-10"/>
<text text-anchor="start" x="346.2812" y="-15.4" font-family="sans-serif" font-size="14.00" fill="#000000"> &#160;Bootstrap</text>
<polygon fill="#fdb462" stroke="transparent" points="419.5,-10 419.5,-30 439.5,-30 439.5,-10 419.5,-10"/>
<text text-anchor="start" x="443.1732" y="-15.4" font-family="sans-serif" font-size="14.00" fill="#000000"> &#160;Providers</text>
<polygon fill="#fb8072" stroke="transparent" points="515.5,-10 515.5,-30 535.5,-30 535.5,-10 515.5,-10"/>
<text text-anchor="start" x="539.2258" y="-15.4" font-family="sans-serif" font-size="14.00" fill="#000000"> &#160;Exports</text>
<g id="clust1" class="cluster">
<title>cluster_ItemsModule</title>
<polygon fill="none" stroke="#000000" stroke-dasharray="1,5" points="8,-70 8,-268 707,-268 707,-70 8,-70"/>
</g>
<g id="clust2" class="cluster">
<title>cluster_ItemsModule_declarations</title>
<polygon fill="none" stroke="#000000" points="292,-78 292,-130 699,-130 699,-78 292,-78"/>
</g>
<g id="clust6" class="cluster">
<title>cluster_ItemsModule_imports</title>
<polygon fill="none" stroke="#000000" points="16,-78 16,-130 284,-130 284,-78 16,-78"/>
</g>
<g id="clust7" class="cluster">
<title>cluster_ItemsModule_exports</title>
<polygon fill="none" stroke="#000000" points="224,-208 224,-260 491,-260 491,-208 224,-208"/>
</g>
<!-- AbstractComponent -->
<g id="node1" class="node">
<title>AbstractComponent</title>
<polygon fill="#ffffb3" stroke="#000000" points="691.2548,-122 562.7452,-122 562.7452,-86 691.2548,-86 691.2548,-122"/>
<text text-anchor="middle" x="627" y="-99.8" font-family="Times,serif" font-size="14.00" fill="#000000">AbstractComponent</text>
</g>
<!-- ItemsModule -->
<g id="node4" class="node">
<title>ItemsModule</title>
<polygon fill="#8dd3c7" stroke="#000000" points="407.1515,-187 404.1515,-191 383.1515,-191 380.1515,-187 316.8485,-187 316.8485,-151 407.1515,-151 407.1515,-187"/>
<text text-anchor="middle" x="362" y="-164.8" font-family="Times,serif" font-size="14.00" fill="#000000">ItemsModule</text>
</g>
<!-- AbstractComponent&#45;&gt;ItemsModule -->
<g id="edge1" class="edge">
<title>AbstractComponent&#45;&gt;ItemsModule</title>
<path fill="none" stroke="#000000" d="M627,-122.2843C627,-143.3211 627,-175 627,-175 627,-175 417.254,-175 417.254,-175"/>
<polygon fill="#000000" stroke="#000000" points="417.2541,-171.5001 407.254,-175 417.254,-178.5001 417.2541,-171.5001"/>
</g>
<!-- ListComponent -->
<g id="node2" class="node">
<title>ListComponent</title>
<polygon fill="#ffffb3" stroke="#000000" points="544.6109,-122 441.3891,-122 441.3891,-86 544.6109,-86 544.6109,-122"/>
<text text-anchor="middle" x="493" y="-99.8" font-family="Times,serif" font-size="14.00" fill="#000000">ListComponent</text>
</g>
<!-- ListComponent&#45;&gt;ItemsModule -->
<g id="edge2" class="edge">
<title>ListComponent&#45;&gt;ItemsModule</title>
<path fill="none" stroke="#000000" d="M462.375,-122.0225C462.375,-139.3734 462.375,-163 462.375,-163 462.375,-163 417.1957,-163 417.1957,-163"/>
<polygon fill="#000000" stroke="#000000" points="417.1957,-159.5001 407.1957,-163 417.1957,-166.5001 417.1957,-159.5001"/>
</g>
<!-- LivreesComponent -->
<g id="node3" class="node">
<title>LivreesComponent</title>
<polygon fill="#ffffb3" stroke="#000000" points="423.8104,-122 300.1896,-122 300.1896,-86 423.8104,-86 423.8104,-122"/>
<text text-anchor="middle" x="362" y="-99.8" font-family="Times,serif" font-size="14.00" fill="#000000">LivreesComponent</text>
</g>
<!-- LivreesComponent&#45;&gt;ItemsModule -->
<g id="edge3" class="edge">
<title>LivreesComponent&#45;&gt;ItemsModule</title>
<path fill="none" stroke="#000000" d="M362,-122.1061C362,-122.1061 362,-140.991 362,-140.991"/>
<polygon fill="#000000" stroke="#000000" points="358.5001,-140.9909 362,-150.991 365.5001,-140.991 358.5001,-140.9909"/>
</g>
<!-- ListComponent  -->
<g id="node7" class="node">
<title>ListComponent </title>
<polygon fill="#fb8072" stroke="#000000" points="483.1115,-252 376.8885,-252 376.8885,-216 483.1115,-216 483.1115,-252"/>
<text text-anchor="middle" x="430" y="-229.8" font-family="Times,serif" font-size="14.00" fill="#000000">ListComponent </text>
</g>
<!-- ItemsModule&#45;&gt;ListComponent  -->
<g id="edge6" class="edge">
<title>ItemsModule&#45;&gt;ListComponent </title>
<path fill="none" stroke="#000000" stroke-dasharray="5,2" d="M392.01,-187.1061C392.01,-187.1061 392.01,-205.991 392.01,-205.991"/>
<polygon fill="#000000" stroke="#000000" points="388.5101,-205.9909 392.01,-215.991 395.5101,-205.991 388.5101,-205.9909"/>
</g>
<!-- LivreesComponent  -->
<g id="node8" class="node">
<title>LivreesComponent </title>
<polygon fill="#fb8072" stroke="#000000" points="358.3101,-252 231.6899,-252 231.6899,-216 358.3101,-216 358.3101,-252"/>
<text text-anchor="middle" x="295" y="-229.8" font-family="Times,serif" font-size="14.00" fill="#000000">LivreesComponent </text>
</g>
<!-- ItemsModule&#45;&gt;LivreesComponent  -->
<g id="edge7" class="edge">
<title>ItemsModule&#45;&gt;LivreesComponent </title>
<path fill="none" stroke="#000000" stroke-dasharray="5,2" d="M337.5398,-187.1061C337.5398,-187.1061 337.5398,-205.991 337.5398,-205.991"/>
<polygon fill="#000000" stroke="#000000" points="334.0399,-205.9909 337.5398,-215.991 341.0399,-205.991 334.0399,-205.9909"/>
</g>
<!-- ItemsRoutingModule -->
<g id="node5" class="node">
<title>ItemsRoutingModule</title>
<polygon fill="#8dd3c7" stroke="#000000" points="275.7688,-122 272.7688,-126 251.7688,-126 248.7688,-122 140.2312,-122 140.2312,-86 275.7688,-86 275.7688,-122"/>
<text text-anchor="middle" x="208" y="-99.8" font-family="Times,serif" font-size="14.00" fill="#000000">ItemsRoutingModule</text>
</g>
<!-- ItemsRoutingModule&#45;&gt;ItemsModule -->
<g id="edge4" class="edge">
<title>ItemsRoutingModule&#45;&gt;ItemsModule</title>
<path fill="none" stroke="#000000" d="M253.7397,-122.0225C253.7397,-139.3734 253.7397,-163 253.7397,-163 253.7397,-163 306.7151,-163 306.7151,-163"/>
<polygon fill="#000000" stroke="#000000" points="306.7152,-166.5001 316.7151,-163 306.7151,-159.5001 306.7152,-166.5001"/>
</g>
<!-- SharedModule -->
<g id="node6" class="node">
<title>SharedModule</title>
<polygon fill="#8dd3c7" stroke="#000000" points="122.4231,-122 119.4231,-126 98.4231,-126 95.4231,-122 23.5769,-122 23.5769,-86 122.4231,-86 122.4231,-122"/>
<text text-anchor="middle" x="73" y="-99.8" font-family="Times,serif" font-size="14.00" fill="#000000">SharedModule</text>
</g>
<!-- SharedModule&#45;&gt;ItemsModule -->
<g id="edge5" class="edge">
<title>SharedModule&#45;&gt;ItemsModule</title>
<path fill="none" stroke="#000000" d="M73,-122.2843C73,-143.3211 73,-175 73,-175 73,-175 306.8438,-175 306.8438,-175"/>
<polygon fill="#000000" stroke="#000000" points="306.8438,-178.5001 316.8438,-175 306.8437,-171.5001 306.8438,-178.5001"/>
</g>
</g>
</svg>
